<svg width="9" height="17" viewBox="0 0 9 17" fill="none" xmlns="http://www.w3.org/2000/svg">
<path d="M8.398 3.23125H5.746C5.25778 3.23125 4.862 3.63419 4.862 4.13125V6.83125H8.398C8.49854 6.82898 8.5939 6.8766 8.65368 6.95894C8.71345 7.04128 8.73019 7.14806 8.69856 7.24525L8.0444 9.22525C7.98412 9.40698 7.81732 9.52983 7.62892 9.53125H4.862V16.2813C4.862 16.5298 4.66411 16.7313 4.42 16.7313H2.21C1.96589 16.7313 1.768 16.5298 1.768 16.2813V9.53125H0.442C0.19789 9.53125 0 9.32978 0 9.08125V7.28125C0 7.03272 0.19789 6.83125 0.442 6.83125H1.768V4.13125C1.768 2.14302 3.35112 0.53125 5.304 0.53125H8.398C8.64211 0.53125 8.84 0.732722 8.84 0.98125V2.78125C8.84 3.02978 8.64211 3.23125 8.398 3.23125Z" fill="#7B7B7B"/>
</svg>
