<svg width="20" height="21" viewBox="0 0 20 21" fill="none" xmlns="http://www.w3.org/2000/svg">
<path d="M15.5541 20.3688C13.7167 20.3672 11.9081 19.9149 10.2879 19.0518L9.78795 18.7751C6.33356 16.925 3.50154 14.1038 1.64429 10.6626L1.36654 10.1645C0.477536 8.54135 0.00791893 6.72331 6.98594e-07 4.87425V4.13273C-0.000468563 3.54278 0.23549 2.97705 0.655493 2.56114L2.53309 0.690719C2.71543 0.507659 2.97283 0.419425 3.22964 0.451946C3.48646 0.484467 3.71351 0.634047 3.84407 0.856732L6.34383 5.12881C6.59662 5.56364 6.52363 6.11355 6.16607 6.46798L4.06628 8.55975C3.8919 8.73156 3.85126 8.99695 3.96628 9.21274L4.35514 9.9432C5.75171 12.5202 7.8762 14.6327 10.4657 16.0193L11.1989 16.4177C11.4155 16.5323 11.6819 16.4918 11.8544 16.3181L13.9542 14.2263C14.31 13.8702 14.862 13.7974 15.2985 14.0493L19.587 16.5395C19.8105 16.6695 19.9607 16.8957 19.9933 17.1515C20.026 17.4074 19.9374 17.6638 19.7537 17.8454L17.8761 19.7158C17.4585 20.1342 16.8906 20.3693 16.2984 20.3688H15.5541Z" fill="#7B7B7B"/>
</svg>
