<svg width="16" height="16" viewBox="0 0 16 16" fill="none" xmlns="http://www.w3.org/2000/svg">
<path fill-rule="evenodd" clip-rule="evenodd" d="M3.2 0.773438H12.8C14.5673 0.773438 16 2.08925 16 3.71239V9.5903C16 11.2134 14.5673 12.5292 12.8 12.5292H4.8C4.15884 12.518 3.53946 12.7429 3.08 13.1538L0.68 15.358C0.606662 15.4279 0.505695 15.4676 0.4 15.4682C0.179086 15.4682 0 15.3037 0 15.1008V3.71239C0 2.08925 1.43269 0.773438 3.2 0.773438ZM14.4 3.7124C14.4 2.90083 13.6837 2.24292 12.8 2.24292H3.2C2.31635 2.24292 1.60001 2.90083 1.60001 3.7124V12.4411L1.96801 12.1325C2.71961 11.444 3.73841 11.058 4.8 11.0598H12.8C13.6837 11.0598 14.4 10.4019 14.4 9.59031V3.7124Z" fill="#7B7B7B"/>
</svg>
