<svg width="18" height="17" viewBox="0 0 18 17" fill="none" xmlns="http://www.w3.org/2000/svg">
<path fill-rule="evenodd" clip-rule="evenodd" d="M0 2.60123C0 1.54862 0.89543 0.695312 2 0.695312C2.53043 0.695312 3.03914 0.896114 3.41421 1.25354C3.78929 1.61097 4 2.09575 4 2.60123C4 3.65384 3.10457 4.50715 2 4.50715C0.89543 4.50715 0 3.65384 0 2.60123ZM17.5 10.6153C17.5345 8.55209 16.0574 6.74406 13.95 6.26985C12.5377 5.98006 11.0657 6.36006 10 7.28952V6.88927C10 6.62612 9.77614 6.4128 9.5 6.4128H7C6.72386 6.4128 6.5 6.62612 6.5 6.88927V16.4189C6.5 16.682 6.72386 16.8953 7 16.8953H9.5C9.77614 16.8953 10 16.682 10 16.4189V11.0442C9.9753 10.0871 10.6752 9.25135 11.66 9.06202C12.2463 8.96556 12.8473 9.12292 13.2996 9.49133C13.752 9.85975 14.0087 10.401 14 10.9679V16.4189C14 16.682 14.2239 16.8953 14.5 16.8953H17C17.2761 16.8953 17.5 16.682 17.5 16.4189V10.6153ZM4 6.88943V16.4188C4 16.682 3.77614 16.8953 3.5 16.8953H1C0.723858 16.8953 0.5 16.682 0.5 16.4188V6.88943C0.5 6.62629 0.723858 6.41296 1 6.41296H3.5C3.77614 6.41296 4 6.62629 4 6.88943Z" fill="#7B7B7B"/>
</svg>
