<svg width="19" height="17" viewBox="0 0 19 17" fill="none" xmlns="http://www.w3.org/2000/svg">
<path d="M18.796 2.96503C18.3103 3.62098 17.7232 4.19318 17.0574 4.65952C17.0574 4.83087 17.0574 5.00222 17.0574 5.1831C17.0628 8.29485 15.8351 11.2786 13.6498 13.4655C11.4644 15.6524 8.50415 16.8594 5.43257 16.8161C3.65683 16.8221 1.90382 16.4115 0.310872 15.6166C0.22498 15.5786 0.169581 15.4926 0.169907 15.3976V15.2929C0.169907 15.1562 0.279301 15.0454 0.414245 15.0454C2.15976 14.9872 3.84301 14.3744 5.22583 13.2938C3.64589 13.2616 2.22435 12.3139 1.57015 10.8568C1.53711 10.7772 1.5474 10.6859 1.5973 10.6159C1.64721 10.5459 1.72952 10.5073 1.81449 10.5141C2.29467 10.5629 2.77964 10.5177 3.24293 10.3808C1.49881 10.0142 0.188305 8.54819 0.000750257 6.75383C-0.00591569 6.66775 0.0321828 6.58438 0.101282 6.53382C0.170382 6.48327 0.260494 6.47285 0.339065 6.50632C0.807109 6.71543 1.31236 6.82557 1.82389 6.82999C0.295629 5.81438 -0.364477 3.88265 0.216895 2.1273C0.276907 1.95673 0.421084 1.83073 0.596444 1.79559C0.771805 1.76045 0.952481 1.82137 1.07208 1.95595C3.13437 4.17828 5.96799 5.50256 8.97548 5.64956C8.89844 5.33832 8.86055 5.01846 8.8627 4.6976C8.89083 3.01513 9.91899 1.51635 11.4658 0.902937C13.0127 0.289523 14.7721 0.682871 15.9203 1.89883C16.703 1.74786 17.4597 1.48166 18.1663 1.1087C18.2181 1.07598 18.2837 1.07598 18.3355 1.1087C18.3678 1.16114 18.3678 1.22763 18.3355 1.28006C17.9932 2.07362 17.415 2.73919 16.6815 3.18398C17.3239 3.10856 17.9549 2.95514 18.561 2.72704C18.6121 2.69186 18.6792 2.69186 18.7302 2.72704C18.773 2.74684 18.8049 2.78472 18.8176 2.83057C18.8303 2.87643 18.8224 2.92561 18.796 2.96503Z" fill="#7B7B7B"/>
</svg>
